<svg xmlns="http://www.w3.org/2000/svg" xmlns:xlink="http://www.w3.org/1999/xlink" contentStyleType="text/css" data-diagram-type="CLASS" height="781px" preserveAspectRatio="none" style="width:816px;height:781px;background:#FFFFFF;" version="1.1" viewBox="0 0 816 781" width="816px" zoomAndPan="magnify"><?plantuml 1.2026.6?><defs/><g><!--cluster Dominio Cl?nico--><g class="cluster" data-qualified-name="Dominio Cl.nico" data-source-line="4" id="ent0001"><path d="M8.5,212 L131.9385,212 A3.75,3.75 0 0 1 134.4385,214.5 L141.4385,234.2969 L542.84,234.2969 A2.5,2.5 0 0 1 545.34,236.7969 L545.34,391.5 A2.5,2.5 0 0 1 542.84,394 L8.5,394 A2.5,2.5 0 0 1 6,391.5 L6,214.5 A2.5,2.5 0 0 1 8.5,212" fill="none" style="stroke:#000000;stroke-width:1.5;"/><line style="stroke:#000000;stroke-width:1.5;" x1="6" x2="141.4385" y1="234.2969" y2="234.2969"/><text fill="#000000" font-family="sans-serif" font-size="14" font-weight="700" lengthAdjust="spacing" textLength="122.4385" x="10" y="226.9951">Dominio Cl&#237;nico</text></g><!--cluster Dominio Operativo--><g class="cluster" data-qualified-name="Dominio Operativo" data-source-line="12" id="ent0007"><path d="M374.42,418 L523.3087,418 A3.75,3.75 0 0 1 525.8087,420.5 L532.8087,440.2969 L799.35,440.2969 A2.5,2.5 0 0 1 801.85,442.7969 L801.85,763.5 A2.5,2.5 0 0 1 799.35,766 L374.42,766 A2.5,2.5 0 0 1 371.92,763.5 L371.92,420.5 A2.5,2.5 0 0 1 374.42,418" fill="none" style="stroke:#000000;stroke-width:1.5;"/><line style="stroke:#000000;stroke-width:1.5;" x1="371.92" x2="532.8087" y1="440.2969" y2="440.2969"/><text fill="#000000" font-family="sans-serif" font-size="14" font-weight="700" lengthAdjust="spacing" textLength="147.8887" x="375.92" y="432.9951">Dominio Operativo</text></g><!--cluster Dominio de Seguridad--><g class="cluster" data-qualified-name="Dominio de Seguridad" data-source-line="20" id="ent0013"><path d="M12,6 L188.0342,6 A3.75,3.75 0 0 1 190.5342,8.5 L197.5342,28.2969 L341.42,28.2969 A2.5,2.5 0 0 1 343.92,30.7969 L343.92,185.5 A2.5,2.5 0 0 1 341.42,188 L12,188 A2.5,2.5 0 0 1 9.5,185.5 L9.5,8.5 A2.5,2.5 0 0 1 12,6" fill="none" style="stroke:#000000;stroke-width:1.5;"/><line style="stroke:#000000;stroke-width:1.5;" x1="9.5" x2="197.5342" y1="28.2969" y2="28.2969"/><text fill="#000000" font-family="sans-serif" font-size="14" font-weight="700" lengthAdjust="spacing" textLength="175.0342" x="13.5" y="20.9951">Dominio de Seguridad</text></g><!--class Paciente--><g class="entity" data-qualified-name="Dominio Cl.nico.Paciente" data-source-line="5" id="ent0002"><rect fill="#F1F1F1" height="48" rx="2.5" ry="2.5" style="stroke:#181818;stroke-width:0.5;" width="92.1973" x="22" y="289"/><ellipse cx="37" cy="305" fill="#ADD1B2" rx="11" ry="11" style="stroke:#181818;stroke-width:1;"/><path d="M39.9688,310.6406 Q39.3906,310.9375 38.75,311.0781 Q38.1094,311.2344 37.4063,311.2344 Q34.9063,311.2344 33.5781,309.5938 Q32.2656,307.9375 32.2656,304.8125 Q32.2656,301.6875 33.5781,300.0313 Q34.9063,298.375 37.4063,298.375 Q38.1094,298.375 38.75,298.5313 Q39.4063,298.6875 39.9688,298.9844 L39.9688,301.7031 Q39.3438,301.125 38.75,300.8594 Q38.1563,300.5781 37.5313,300.5781 Q36.1875,300.5781 35.5,301.6563 Q34.8125,302.7188 34.8125,304.8125 Q34.8125,306.9063 35.5,307.9844 Q36.1875,309.0469 37.5313,309.0469 Q38.1563,309.0469 38.75,308.7813 Q39.3438,308.5 39.9688,307.9219 L39.9688,310.6406 Z " fill="#000000"/><text fill="#000000" font-family="sans-serif" font-size="14" lengthAdjust="spacing" textLength="60.1973" x="51" y="309.8467">Paciente</text><line style="stroke:#181818;stroke-width:0.5;" x1="23" x2="113.1973" y1="321" y2="321"/><line style="stroke:#181818;stroke-width:0.5;" x1="23" x2="113.1973" y1="329" y2="329"/></g><!--class HistoriaClinica--><g class="entity" data-qualified-name="Dominio Cl.nico.HistoriaClinica" data-source-line="6" id="ent0003"><rect fill="#F1F1F1" height="48" rx="2.5" ry="2.5" style="stroke:#181818;stroke-width:0.5;" width="132.584" x="184.77" y="330"/><ellipse cx="199.77" cy="346" fill="#ADD1B2" rx="11" ry="11" style="stroke:#181818;stroke-width:1;"/><path d="M202.7388,351.6406 Q202.1606,351.9375 201.52,352.0781 Q200.8794,352.2344 200.1763,352.2344 Q197.6763,352.2344 196.3481,350.5938 Q195.0356,348.9375 195.0356,345.8125 Q195.0356,342.6875 196.3481,341.0313 Q197.6763,339.375 200.1763,339.375 Q200.8794,339.375 201.52,339.5313 Q202.1763,339.6875 202.7388,339.9844 L202.7388,342.7031 Q202.1138,342.125 201.52,341.8594 Q200.9263,341.5781 200.3013,341.5781 Q198.9575,341.5781 198.27,342.6563 Q197.5825,343.7188 197.5825,345.8125 Q197.5825,347.9063 198.27,348.9844 Q198.9575,350.0469 200.3013,350.0469 Q200.9263,350.0469 201.52,349.7813 Q202.1138,349.5 202.7388,348.9219 L202.7388,351.6406 Z " fill="#000000"/><text fill="#000000" font-family="sans-serif" font-size="14" lengthAdjust="spacing" textLength="100.584" x="213.77" y="350.8467">HistoriaClinica</text><line style="stroke:#181818;stroke-width:0.5;" x1="185.77" x2="316.354" y1="362" y2="362"/><line style="stroke:#181818;stroke-width:0.5;" x1="185.77" x2="316.354" y1="370" y2="370"/></g><!--class EventoClinico--><g class="entity" data-qualified-name="Dominio Cl.nico.EventoClinico" data-source-line="7" id="ent0004"><rect fill="#F1F1F1" height="48" rx="2.5" ry="2.5" style="stroke:#181818;stroke-width:0.5;" width="127.252" x="402.09" y="330"/><ellipse cx="417.09" cy="346" fill="#ADD1B2" rx="11" ry="11" style="stroke:#181818;stroke-width:1;"/><path d="M420.0588,351.6406 Q419.4806,351.9375 418.84,352.0781 Q418.1994,352.2344 417.4963,352.2344 Q414.9963,352.2344 413.6681,350.5938 Q412.3556,348.9375 412.3556,345.8125 Q412.3556,342.6875 413.6681,341.0313 Q414.9963,339.375 417.4963,339.375 Q418.1994,339.375 418.84,339.5313 Q419.4963,339.6875 420.0588,339.9844 L420.0588,342.7031 Q419.4338,342.125 418.84,341.8594 Q418.2463,341.5781 417.6213,341.5781 Q416.2775,341.5781 415.59,342.6563 Q414.9025,343.7188 414.9025,345.8125 Q414.9025,347.9063 415.59,348.9844 Q416.2775,350.0469 417.6213,350.0469 Q418.2463,350.0469 418.84,349.7813 Q419.4338,349.5 420.0588,348.9219 L420.0588,351.6406 Z " fill="#000000"/><text fill="#000000" font-family="sans-serif" font-size="14" lengthAdjust="spacing" textLength="95.252" x="431.09" y="350.8467">EventoClinico</text><line style="stroke:#181818;stroke-width:0.5;" x1="403.09" x2="528.342" y1="362" y2="362"/><line style="stroke:#181818;stroke-width:0.5;" x1="403.09" x2="528.342" y1="370" y2="370"/></g><!--class Cita--><g class="entity" data-qualified-name="Dominio Cl.nico.Cita" data-source-line="8" id="ent0005"><rect fill="#F1F1F1" height="48" rx="2.5" ry="2.5" style="stroke:#181818;stroke-width:0.5;" width="59.7334" x="221.19" y="247"/><ellipse cx="236.19" cy="263" fill="#ADD1B2" rx="11" ry="11" style="stroke:#181818;stroke-width:1;"/><path d="M239.1588,268.6406 Q238.5806,268.9375 237.94,269.0781 Q237.2994,269.2344 236.5963,269.2344 Q234.0963,269.2344 232.7681,267.5938 Q231.4556,265.9375 231.4556,262.8125 Q231.4556,259.6875 232.7681,258.0313 Q234.0963,256.375 236.5963,256.375 Q237.2994,256.375 237.94,256.5313 Q238.5963,256.6875 239.1588,256.9844 L239.1588,259.7031 Q238.5338,259.125 237.94,258.8594 Q237.3463,258.5781 236.7213,258.5781 Q235.3775,258.5781 234.69,259.6563 Q234.0025,260.7188 234.0025,262.8125 Q234.0025,264.9063 234.69,265.9844 Q235.3775,267.0469 236.7213,267.0469 Q237.3463,267.0469 237.94,266.7813 Q238.5338,266.5 239.1588,265.9219 L239.1588,268.6406 Z " fill="#000000"/><text fill="#000000" font-family="sans-serif" font-size="14" lengthAdjust="spacing" textLength="27.7334" x="250.19" y="267.8467">Cita</text><line style="stroke:#181818;stroke-width:0.5;" x1="222.19" x2="279.9234" y1="279" y2="279"/><line style="stroke:#181818;stroke-width:0.5;" x1="222.19" x2="279.9234" y1="287" y2="287"/></g><!--class Teleconsulta--><g class="entity" data-qualified-name="Dominio Cl.nico.Teleconsulta" data-source-line="9" id="ent0006"><rect fill="#F1F1F1" height="48" rx="2.5" ry="2.5" style="stroke:#181818;stroke-width:0.5;" width="120.9287" x="405.25" y="247"/><ellipse cx="420.25" cy="263" fill="#ADD1B2" rx="11" ry="11" style="stroke:#181818;stroke-width:1;"/><path d="M423.2188,268.6406 Q422.6406,268.9375 422,269.0781 Q421.3594,269.2344 420.6563,269.2344 Q418.1563,269.2344 416.8281,267.5938 Q415.5156,265.9375 415.5156,262.8125 Q415.5156,259.6875 416.8281,258.0313 Q418.1563,256.375 420.6563,256.375 Q421.3594,256.375 422,256.5313 Q422.6563,256.6875 423.2188,256.9844 L423.2188,259.7031 Q422.5938,259.125 422,258.8594 Q421.4063,258.5781 420.7813,258.5781 Q419.4375,258.5781 418.75,259.6563 Q418.0625,260.7188 418.0625,262.8125 Q418.0625,264.9063 418.75,265.9844 Q419.4375,267.0469 420.7813,267.0469 Q421.4063,267.0469 422,266.7813 Q422.5938,266.5 423.2188,265.9219 L423.2188,268.6406 Z " fill="#000000"/><text fill="#000000" font-family="sans-serif" font-size="14" lengthAdjust="spacing" textLength="88.9287" x="434.25" y="267.8467">Teleconsulta</text><line style="stroke:#181818;stroke-width:0.5;" x1="406.25" x2="525.1787" y1="279" y2="279"/><line style="stroke:#181818;stroke-width:0.5;" x1="406.25" x2="525.1787" y1="287" y2="287"/></g><!--class Sede--><g class="entity" data-qualified-name="Dominio Operativo.Sede" data-source-line="13" id="ent0008"><rect fill="#F1F1F1" height="48" rx="2.5" ry="2.5" style="stroke:#181818;stroke-width:0.5;" width="67" x="432.21" y="702"/><ellipse cx="447.21" cy="718" fill="#ADD1B2" rx="11" ry="11" style="stroke:#181818;stroke-width:1;"/><path d="M450.1788,723.6406 Q449.6006,723.9375 448.96,724.0781 Q448.3194,724.2344 447.6163,724.2344 Q445.1163,724.2344 443.7881,722.5938 Q442.4756,720.9375 442.4756,717.8125 Q442.4756,714.6875 443.7881,713.0313 Q445.1163,711.375 447.6163,711.375 Q448.3194,711.375 448.96,711.5313 Q449.6163,711.6875 450.1788,711.9844 L450.1788,714.7031 Q449.5538,714.125 448.96,713.8594 Q448.3663,713.5781 447.7413,713.5781 Q446.3975,713.5781 445.71,714.6563 Q445.0225,715.7188 445.0225,717.8125 Q445.0225,719.9063 445.71,720.9844 Q446.3975,722.0469 447.7413,722.0469 Q448.3663,722.0469 448.96,721.7813 Q449.5538,721.5 450.1788,720.9219 L450.1788,723.6406 Z " fill="#000000"/><text fill="#000000" font-family="sans-serif" font-size="14" lengthAdjust="spacing" textLength="35" x="461.21" y="722.8467">Sede</text><line style="stroke:#181818;stroke-width:0.5;" x1="433.21" x2="498.21" y1="734" y2="734"/><line style="stroke:#181818;stroke-width:0.5;" x1="433.21" x2="498.21" y1="742" y2="742"/></g><!--class Medico--><g class="entity" data-qualified-name="Dominio Operativo.Medico" data-source-line="14" id="ent0009"><rect fill="#F1F1F1" height="48" rx="2.5" ry="2.5" style="stroke:#181818;stroke-width:0.5;" width="81.7314" x="424.85" y="453"/><ellipse cx="439.85" cy="469" fill="#ADD1B2" rx="11" ry="11" style="stroke:#181818;stroke-width:1;"/><path d="M442.8188,474.6406 Q442.2406,474.9375 441.6,475.0781 Q440.9594,475.2344 440.2563,475.2344 Q437.7563,475.2344 436.4281,473.5938 Q435.1156,471.9375 435.1156,468.8125 Q435.1156,465.6875 436.4281,464.0313 Q437.7563,462.375 440.2563,462.375 Q440.9594,462.375 441.6,462.5313 Q442.2563,462.6875 442.8188,462.9844 L442.8188,465.7031 Q442.1938,465.125 441.6,464.8594 Q441.0063,464.5781 440.3813,464.5781 Q439.0375,464.5781 438.35,465.6563 Q437.6625,466.7188 437.6625,468.8125 Q437.6625,470.9063 438.35,471.9844 Q439.0375,473.0469 440.3813,473.0469 Q441.0063,473.0469 441.6,472.7813 Q442.1938,472.5 442.8188,471.9219 L442.8188,474.6406 Z " fill="#000000"/><text fill="#000000" font-family="sans-serif" font-size="14" lengthAdjust="spacing" textLength="49.7314" x="453.85" y="473.8467">Medico</text><line style="stroke:#181818;stroke-width:0.5;" x1="425.85" x2="505.5814" y1="485" y2="485"/><line style="stroke:#181818;stroke-width:0.5;" x1="425.85" x2="505.5814" y1="493" y2="493"/></g><!--class Laboratorio--><g class="entity" data-qualified-name="Dominio Operativo.Laboratorio" data-source-line="15" id="ent0010"><rect fill="#F1F1F1" height="48" rx="2.5" ry="2.5" style="stroke:#181818;stroke-width:0.5;" width="112.4316" x="409.5" y="536"/><ellipse cx="424.5" cy="552" fill="#ADD1B2" rx="11" ry="11" style="stroke:#181818;stroke-width:1;"/><path d="M427.4688,557.6406 Q426.8906,557.9375 426.25,558.0781 Q425.6094,558.2344 424.9063,558.2344 Q422.4063,558.2344 421.0781,556.5938 Q419.7656,554.9375 419.7656,551.8125 Q419.7656,548.6875 421.0781,547.0313 Q422.4063,545.375 424.9063,545.375 Q425.6094,545.375 426.25,545.5313 Q426.9063,545.6875 427.4688,545.9844 L427.4688,548.7031 Q426.8438,548.125 426.25,547.8594 Q425.6563,547.5781 425.0313,547.5781 Q423.6875,547.5781 423,548.6563 Q422.3125,549.7188 422.3125,551.8125 Q422.3125,553.9063 423,554.9844 Q423.6875,556.0469 425.0313,556.0469 Q425.6563,556.0469 426.25,555.7813 Q426.8438,555.5 427.4688,554.9219 L427.4688,557.6406 Z " fill="#000000"/><text fill="#000000" font-family="sans-serif" font-size="14" lengthAdjust="spacing" textLength="80.4316" x="438.5" y="556.8467">Laboratorio</text><line style="stroke:#181818;stroke-width:0.5;" x1="410.5" x2="520.9316" y1="568" y2="568"/><line style="stroke:#181818;stroke-width:0.5;" x1="410.5" x2="520.9316" y1="576" y2="576"/></g><!--class OrdenLaboratorio--><g class="entity" data-qualified-name="Dominio Operativo.OrdenLaboratorio" data-source-line="16" id="ent0011"><rect fill="#F1F1F1" height="48" rx="2.5" ry="2.5" style="stroke:#181818;stroke-width:0.5;" width="155.5801" x="387.92" y="619"/><ellipse cx="402.92" cy="635" fill="#ADD1B2" rx="11" ry="11" style="stroke:#181818;stroke-width:1;"/><path d="M405.8888,640.6406 Q405.3106,640.9375 404.67,641.0781 Q404.0294,641.2344 403.3263,641.2344 Q400.8263,641.2344 399.4981,639.5938 Q398.1856,637.9375 398.1856,634.8125 Q398.1856,631.6875 399.4981,630.0313 Q400.8263,628.375 403.3263,628.375 Q404.0294,628.375 404.67,628.5313 Q405.3263,628.6875 405.8888,628.9844 L405.8888,631.7031 Q405.2638,631.125 404.67,630.8594 Q404.0763,630.5781 403.4513,630.5781 Q402.1075,630.5781 401.42,631.6563 Q400.7325,632.7188 400.7325,634.8125 Q400.7325,636.9063 401.42,637.9844 Q402.1075,639.0469 403.4513,639.0469 Q404.0763,639.0469 404.67,638.7813 Q405.2638,638.5 405.8888,637.9219 L405.8888,640.6406 Z " fill="#000000"/><text fill="#000000" font-family="sans-serif" font-size="14" lengthAdjust="spacing" textLength="123.5801" x="416.92" y="639.8467">OrdenLaboratorio</text><line style="stroke:#181818;stroke-width:0.5;" x1="388.92" x2="542.5001" y1="651" y2="651"/><line style="stroke:#181818;stroke-width:0.5;" x1="388.92" x2="542.5001" y1="659" y2="659"/></g><!--class ResultadoLaboratorio--><g class="entity" data-qualified-name="Dominio Operativo.ResultadoLaboratorio" data-source-line="17" id="ent0012"><rect fill="#F1F1F1" height="48" rx="2.5" ry="2.5" style="stroke:#181818;stroke-width:0.5;" width="182.3496" x="603.5" y="578"/><ellipse cx="618.5" cy="594" fill="#ADD1B2" rx="11" ry="11" style="stroke:#181818;stroke-width:1;"/><path d="M621.4688,599.6406 Q620.8906,599.9375 620.25,600.0781 Q619.6094,600.2344 618.9063,600.2344 Q616.4063,600.2344 615.0781,598.5938 Q613.7656,596.9375 613.7656,593.8125 Q613.7656,590.6875 615.0781,589.0313 Q616.4063,587.375 618.9063,587.375 Q619.6094,587.375 620.25,587.5313 Q620.9063,587.6875 621.4688,587.9844 L621.4688,590.7031 Q620.8438,590.125 620.25,589.8594 Q619.6563,589.5781 619.0313,589.5781 Q617.6875,589.5781 617,590.6563 Q616.3125,591.7188 616.3125,593.8125 Q616.3125,595.9063 617,596.9844 Q617.6875,598.0469 619.0313,598.0469 Q619.6563,598.0469 620.25,597.7813 Q620.8438,597.5 621.4688,596.9219 L621.4688,599.6406 Z " fill="#000000"/><text fill="#000000" font-family="sans-serif" font-size="14" lengthAdjust="spacing" textLength="150.3496" x="632.5" y="598.8467">ResultadoLaboratorio</text><line style="stroke:#181818;stroke-width:0.5;" x1="604.5" x2="784.8496" y1="610" y2="610"/><line style="stroke:#181818;stroke-width:0.5;" x1="604.5" x2="784.8496" y1="618" y2="618"/></g><!--class Usuario--><g class="entity" data-qualified-name="Dominio de Seguridad.Usuario" data-source-line="21" id="ent0014"><rect fill="#F1F1F1" height="48" rx="2.5" ry="2.5" style="stroke:#181818;stroke-width:0.5;" width="85.2041" x="25.5" y="83"/><ellipse cx="40.5" cy="99" fill="#ADD1B2" rx="11" ry="11" style="stroke:#181818;stroke-width:1;"/><path d="M43.4688,104.6406 Q42.8906,104.9375 42.25,105.0781 Q41.6094,105.2344 40.9063,105.2344 Q38.4063,105.2344 37.0781,103.5938 Q35.7656,101.9375 35.7656,98.8125 Q35.7656,95.6875 37.0781,94.0313 Q38.4063,92.375 40.9063,92.375 Q41.6094,92.375 42.25,92.5313 Q42.9063,92.6875 43.4688,92.9844 L43.4688,95.7031 Q42.8438,95.125 42.25,94.8594 Q41.6563,94.5781 41.0313,94.5781 Q39.6875,94.5781 39,95.6563 Q38.3125,96.7188 38.3125,98.8125 Q38.3125,100.9063 39,101.9844 Q39.6875,103.0469 41.0313,103.0469 Q41.6563,103.0469 42.25,102.7813 Q42.8438,102.5 43.4688,101.9219 L43.4688,104.6406 Z " fill="#000000"/><text fill="#000000" font-family="sans-serif" font-size="14" lengthAdjust="spacing" textLength="53.2041" x="54.5" y="103.8467">Usuario</text><line style="stroke:#181818;stroke-width:0.5;" x1="26.5" x2="109.7041" y1="115" y2="115"/><line style="stroke:#181818;stroke-width:0.5;" x1="26.5" x2="109.7041" y1="123" y2="123"/></g><!--class Rol--><g class="entity" data-qualified-name="Dominio de Seguridad.Rol" data-source-line="22" id="ent0015"><rect fill="#F1F1F1" height="48" rx="2.5" ry="2.5" style="stroke:#181818;stroke-width:0.5;" width="54.1826" x="223.97" y="124"/><ellipse cx="238.97" cy="140" fill="#ADD1B2" rx="11" ry="11" style="stroke:#181818;stroke-width:1;"/><path d="M241.9388,145.6406 Q241.3606,145.9375 240.72,146.0781 Q240.0794,146.2344 239.3763,146.2344 Q236.8763,146.2344 235.5481,144.5938 Q234.2356,142.9375 234.2356,139.8125 Q234.2356,136.6875 235.5481,135.0313 Q236.8763,133.375 239.3763,133.375 Q240.0794,133.375 240.72,133.5313 Q241.3763,133.6875 241.9388,133.9844 L241.9388,136.7031 Q241.3138,136.125 240.72,135.8594 Q240.1263,135.5781 239.5013,135.5781 Q238.1575,135.5781 237.47,136.6563 Q236.7825,137.7188 236.7825,139.8125 Q236.7825,141.9063 237.47,142.9844 Q238.1575,144.0469 239.5013,144.0469 Q240.1263,144.0469 240.72,143.7813 Q241.3138,143.5 241.9388,142.9219 L241.9388,145.6406 Z " fill="#000000"/><text fill="#000000" font-family="sans-serif" font-size="14" lengthAdjust="spacing" textLength="22.1826" x="252.97" y="144.8467">Rol</text><line style="stroke:#181818;stroke-width:0.5;" x1="224.97" x2="277.1526" y1="156" y2="156"/><line style="stroke:#181818;stroke-width:0.5;" x1="224.97" x2="277.1526" y1="164" y2="164"/></g><!--class RegistroAuditoria--><g class="entity" data-qualified-name="Dominio de Seguridad.RegistroAuditoria" data-source-line="23" id="ent0016"><rect fill="#F1F1F1" height="48" rx="2.5" ry="2.5" style="stroke:#181818;stroke-width:0.5;" width="153.7275" x="174.2" y="41"/><ellipse cx="189.2" cy="57" fill="#ADD1B2" rx="11" ry="11" style="stroke:#181818;stroke-width:1;"/><path d="M192.1688,62.6406 Q191.5906,62.9375 190.95,63.0781 Q190.3094,63.2344 189.6063,63.2344 Q187.1063,63.2344 185.7781,61.5938 Q184.4656,59.9375 184.4656,56.8125 Q184.4656,53.6875 185.7781,52.0313 Q187.1063,50.375 189.6063,50.375 Q190.3094,50.375 190.95,50.5313 Q191.6063,50.6875 192.1688,50.9844 L192.1688,53.7031 Q191.5438,53.125 190.95,52.8594 Q190.3563,52.5781 189.7313,52.5781 Q188.3875,52.5781 187.7,53.6563 Q187.0125,54.7188 187.0125,56.8125 Q187.0125,58.9063 187.7,59.9844 Q188.3875,61.0469 189.7313,61.0469 Q190.3563,61.0469 190.95,60.7813 Q191.5438,60.5 192.1688,59.9219 L192.1688,62.6406 Z " fill="#000000"/><text fill="#000000" font-family="sans-serif" font-size="14" lengthAdjust="spacing" textLength="121.7275" x="203.2" y="61.8467">RegistroAuditoria</text><line style="stroke:#181818;stroke-width:0.5;" x1="175.2" x2="326.9275" y1="73" y2="73"/><line style="stroke:#181818;stroke-width:0.5;" x1="175.2" x2="326.9275" y1="81" y2="81"/></g><!--link Paciente to HistoriaClinica--><g class="link" data-entity-1="ent0002" data-entity-2="ent0003" data-link-type="dependency" data-source-line="26" id="lnk17"><path codeLine="26" d="M114.3,323.24 C135.44,328.03 156.1638,332.7243 179.4038,337.9943" fill="none" id="Paciente-to-HistoriaClinica" style="stroke:#181818;stroke-width:1;"/><polygon fill="#181818" points="184.28,339.1,176.3874,333.2087,179.4038,337.9943,174.6182,341.0106,184.28,339.1" style="stroke:#181818;stroke-width:1;stroke-linejoin:miter;stroke-miterlimit:10;"/></g><!--link HistoriaClinica to EventoClinico--><g class="link" data-entity-1="ent0003" data-entity-2="ent0004" data-link-type="dependency" data-source-line="27" id="lnk18"><path codeLine="27" d="M317.6,354 C344.45,354 370.39,354 396.94,354" fill="none" id="HistoriaClinica-to-EventoClinico" style="stroke:#181818;stroke-width:1;"/><polygon fill="#181818" points="401.94,354,392.94,350,396.94,354,392.94,358,401.94,354" style="stroke:#181818;stroke-width:1;stroke-linejoin:miter;stroke-miterlimit:10;"/></g><!--link Paciente to Cita--><g class="link" data-entity-1="ent0002" data-entity-2="ent0005" data-link-type="dependency" data-source-line="28" id="lnk19"><path codeLine="28" d="M114.3,302.51 C147.59,294.78 187.0293,285.6297 215.8293,278.9497" fill="none" id="Paciente-to-Cita" style="stroke:#181818;stroke-width:1;"/><polygon fill="#181818" points="220.7,277.82,211.029,275.957,215.8293,278.9497,212.8365,283.7501,220.7,277.82" style="stroke:#181818;stroke-width:1;stroke-linejoin:miter;stroke-miterlimit:10;"/></g><!--link Cita to Teleconsulta--><g class="link" data-entity-1="ent0005" data-entity-2="ent0006" data-link-type="dependency" data-source-line="29" id="lnk20"><path codeLine="29" d="M281.18,271 C312.92,271 359.57,271 400,271" fill="none" id="Cita-to-Teleconsulta" style="stroke:#181818;stroke-width:1;"/><polygon fill="#181818" points="405,271,396,267,400,271,396,275,405,271" style="stroke:#181818;stroke-width:1;stroke-linejoin:miter;stroke-miterlimit:10;"/></g><!--link Medico to Cita--><g class="link" data-entity-1="ent0009" data-entity-2="ent0005" data-link-type="dependency" data-source-line="30" id="lnk21"><path codeLine="30" d="M424.5,454.11 C402.98,439.7 378.07,419.07 363.92,394 C345.83,361.92 374.6,341.02 351.92,312 C334.85,290.14 309.0338,280.875 286.1638,276.085" fill="none" id="Medico-to-Cita" style="stroke:#181818;stroke-width:1;"/><polygon fill="#181818" points="281.27,275.06,289.2589,280.82,286.1638,276.085,290.8989,272.9899,281.27,275.06" style="stroke:#181818;stroke-width:1;stroke-linejoin:miter;stroke-miterlimit:10;"/></g><!--link HistoriaClinica to OrdenLaboratorio--><g class="link" data-entity-1="ent0003" data-entity-2="ent0011" data-link-type="dependency" data-source-line="31" id="lnk22"><path codeLine="31" d="M256.71,378.27 C267.25,427.09 297.42,537.94 363.92,602 C370.8,608.62 374.5049,611.7996 383.0549,616.5296" fill="none" id="HistoriaClinica-to-OrdenLaboratorio" style="stroke:#181818;stroke-width:1;"/><polygon fill="#181818" points="387.43,618.95,381.4911,611.0932,383.0549,616.5296,377.6185,618.0934,387.43,618.95" style="stroke:#181818;stroke-width:1;stroke-linejoin:miter;stroke-miterlimit:10;"/></g><!--link OrdenLaboratorio to ResultadoLaboratorio--><g class="link" data-entity-1="ent0011" data-entity-2="ent0012" data-link-type="dependency" data-source-line="32" id="lnk23"><path codeLine="32" d="M543.87,629.06 C562.89,625.63 578.5096,622.8087 598.1096,619.2687" fill="none" id="OrdenLaboratorio-to-ResultadoLaboratorio" style="stroke:#181818;stroke-width:1;"/><polygon fill="#181818" points="603.03,618.38,593.4624,616.0433,598.1096,619.2687,594.8842,623.9159,603.03,618.38" style="stroke:#181818;stroke-width:1;stroke-linejoin:miter;stroke-miterlimit:10;"/></g><!--link Laboratorio to ResultadoLaboratorio--><g class="link" data-entity-1="ent0010" data-entity-2="ent0012" data-link-type="dependency" data-source-line="33" id="lnk24"><path codeLine="33" d="M522.24,570.27 C546.65,574.79 571.0337,579.2988 598.4437,584.3788" fill="none" id="Laboratorio-to-ResultadoLaboratorio" style="stroke:#181818;stroke-width:1;"/><polygon fill="#181818" points="603.36,585.29,595.2396,579.7169,598.4437,584.3788,593.7818,587.5829,603.36,585.29" style="stroke:#181818;stroke-width:1;stroke-linejoin:miter;stroke-miterlimit:10;"/></g><!--link Usuario to Rol--><g class="link" data-entity-1="ent0014" data-entity-2="ent0015" data-link-type="dependency" data-source-line="34" id="lnk25"><path codeLine="34" d="M111.07,116.51 C145.84,124.39 189.3035,134.2356 218.8435,140.9256" fill="none" id="Usuario-to-Rol" style="stroke:#181818;stroke-width:1;"/><polygon fill="#181818" points="223.72,142.03,215.8258,136.1409,218.8435,140.9256,214.0588,143.9433,223.72,142.03" style="stroke:#181818;stroke-width:1;stroke-linejoin:miter;stroke-miterlimit:10;"/></g><!--link Usuario to RegistroAuditoria--><g class="link" data-entity-1="ent0014" data-entity-2="ent0016" data-link-type="dependency" data-source-line="35" id="lnk26"><path codeLine="35" d="M111.07,97.26 C129.76,92.92 147.4995,88.8004 168.9995,83.8104" fill="none" id="Usuario-to-RegistroAuditoria" style="stroke:#181818;stroke-width:1;"/><polygon fill="#181818" points="173.87,82.68,164.1987,80.8183,168.9995,83.8104,166.0074,88.6112,173.87,82.68" style="stroke:#181818;stroke-width:1;stroke-linejoin:miter;stroke-miterlimit:10;"/></g><?plantuml-src ZP11JiCm44NtESMe-qgS0AaAI221Mb4umDGUmgYk9x8dNO0u4gVWOhWE976R1HjBy_tdpzTpzAgW0e6RDmNBWOoo-2hksRSOy036OOmhrS2xJkdUYD_oEy5LLRLezjWGB6xam9u5QlVzvTd80Zugw1TXWuR9Amt27KULm5Yxj6Dmq6-FoIQzAeDQiuwMPtAKxiVE9V5pfi2wfO3AnwB1bknu_P7iDFu1Tv8sKfzHMmTBVkxZYV9bAzFFkHgMqj6c2spHJfkyn0wBG76Jy2Q12RBgB6S-f-G_UB1SNb-0EvkpfuHOh6UIfoTF1SeUokYQIxwWSYvarooYVvb-sVI6nAMOpzdy0000?></g></svg>