<svg xmlns="http://www.w3.org/2000/svg" xmlns:xlink="http://www.w3.org/1999/xlink" contentStyleType="text/css" data-diagram-type="DESCRIPTION" height="683px" preserveAspectRatio="none" style="width:530px;height:683px;background:#FFFFFF;" version="1.1" viewBox="0 0 530 683" width="530px" zoomAndPan="magnify"><?plantuml 1.2026.6?><defs/><g><!--cluster Cloud--><g class="cluster" data-qualified-name="Cloud" data-source-line="4" id="ent0001"><rect fill="none" height="194" rx="2.5" ry="2.5" style="stroke:#181818;stroke-width:1;" width="509.73" x="7" y="7"/><text fill="#000000" font-family="sans-serif" font-size="14" font-weight="700" lengthAdjust="spacing" textLength="170.1123" x="176.8088" y="21.9951">Nodo central en nube</text></g><!--cluster Sede--><g class="cluster" data-qualified-name="Sede" data-source-line="10" id="ent0005"><rect fill="none" height="194" rx="2.5" ry="2.5" style="stroke:#181818;stroke-width:1;" width="160.65" x="326.08" y="241"/><text fill="#000000" font-family="sans-serif" font-size="14" font-weight="700" lengthAdjust="spacing" textLength="114.6113" x="349.0993" y="255.9951">Nodo por sede</text></g><!--cluster Soporte--><g class="cluster" data-qualified-name="Soporte" data-source-line="15" id="ent0008"><rect fill="none" height="194" rx="2.5" ry="2.5" style="stroke:#181818;stroke-width:1;" width="207.59" x="302.61" y="475"/><text fill="#000000" font-family="sans-serif" font-size="14" font-weight="700" lengthAdjust="spacing" textLength="161.4033" x="325.7033" y="489.9951">Servicios de soporte</text></g><!--entity API Gateway--><g class="entity" data-qualified-name="Cloud.API Gateway" data-source-line="5" id="ent0002"><rect fill="#F1F1F1" height="36.2969" rx="2.5" ry="2.5" style="stroke:#181818;stroke-width:0.5;" width="108.4434" x="45.58" y="120.85"/><text fill="#000000" font-family="sans-serif" font-size="14" lengthAdjust="spacing" textLength="88.4434" x="55.58" y="143.8451">API Gateway</text></g><!--entity Servicios cr?ticos--><g class="entity" data-qualified-name="Cloud.Servicios cr.ticos" data-source-line="6" id="ent0003"><rect fill="#F1F1F1" height="36.2969" rx="2.5" ry="2.5" style="stroke:#181818;stroke-width:0.5;" width="137.6055" x="31" y="49.85"/><text fill="#000000" font-family="sans-serif" font-size="14" lengthAdjust="spacing" textLength="117.6055" x="41" y="72.8451">Servicios cr&#237;ticos</text></g><!--entity Base de datos central--><g class="entity" data-qualified-name="Cloud.Base de datos central" data-source-line="7" id="ent0004"><path d="M320.08,121.35 C320.08,111.35 406.4067,111.35 406.4067,111.35 C406.4067,111.35 492.7333,111.35 492.7333,121.35 L492.7333,146.6469 C492.7333,156.6469 406.4067,156.6469 406.4067,156.6469 C406.4067,156.6469 320.08,156.6469 320.08,146.6469 L320.08,121.35" fill="#F1F1F1" style="stroke:#181818;stroke-width:0.5;"/><path d="M320.08,121.35 C320.08,131.35 406.4067,131.35 406.4067,131.35 C406.4067,131.35 492.7333,131.35 492.7333,121.35" fill="none" style="stroke:#181818;stroke-width:0.5;"/><text fill="#000000" font-family="sans-serif" font-size="14" lengthAdjust="spacing" textLength="152.6533" x="330.08" y="148.3451">Base de datos central</text></g><!--entity Servicio local--><g class="entity" data-qualified-name="Sede.Servicio local" data-source-line="11" id="ent0006"><rect fill="#F1F1F1" height="36.2969" rx="2.5" ry="2.5" style="stroke:#181818;stroke-width:0.5;" width="112.6543" x="350.08" y="374.85"/><text fill="#000000" font-family="sans-serif" font-size="14" lengthAdjust="spacing" textLength="92.6543" x="360.08" y="397.8451">Servicio local</text></g><!--entity Cache--><g class="entity" data-qualified-name="Sede.Cache" data-source-line="12" id="ent0007"><rect fill="#F1F1F1" height="36.2969" rx="2.5" ry="2.5" style="stroke:#181818;stroke-width:0.5;" width="63.5381" x="374.63" y="303.85"/><text fill="#000000" font-family="sans-serif" font-size="14" lengthAdjust="spacing" textLength="43.5381" x="384.63" y="326.8451">Cache</text></g><!--entity Monitorizaci?n--><g class="entity" data-qualified-name="Soporte.Monitorizaci.n" data-source-line="16" id="ent0009"><rect fill="#F1F1F1" height="36.2969" rx="2.5" ry="2.5" style="stroke:#181818;stroke-width:0.5;" width="122.0605" x="345.37" y="608.85"/><text fill="#000000" font-family="sans-serif" font-size="14" lengthAdjust="spacing" textLength="102.0605" x="355.37" y="631.8451">Monitorizaci&#243;n</text></g><!--entity Broker de mensajes--><g class="entity" data-qualified-name="Soporte.Broker de mensajes" data-source-line="17" id="ent0010"><rect fill="#F1F1F1" height="36.2969" rx="2.5" ry="2.5" style="stroke:#181818;stroke-width:0.5;" width="159.5967" x="326.61" y="537.85"/><text fill="#000000" font-family="sans-serif" font-size="14" lengthAdjust="spacing" textLength="139.5967" x="336.61" y="560.8451">Broker de mensajes</text></g><!--link Cloud to Sede--><g class="link" data-entity-1="ent0001" data-entity-2="ent0005" data-link-type="dependency" data-source-line="20" id="lnk11"><path d="M133.6415,201.0838 C134.0218,201.1775 134.4048,201.2718 134.7904,201.3667 C136.3329,201.7466 137.9175,202.1368 139.542,202.5368 C142.7909,203.3368 146.1995,204.1762 149.75,205.0505 C178.1538,212.0447 215.6375,221.2744 253.12,230.5038 C271.8613,235.1184 290.6022,239.733 308.2077,244.0681 C312.609,245.1519 316.9394,246.2182 321.1811,247.2626 C322.2415,247.5237 323.2964,247.7835 324.3455,248.0418 C324.87,248.171 320.5381,247.1043 321.0597,247.2327" fill="none" id="Cloud-to-Sede" style="stroke:#181818;stroke-width:1;"/><polygon fill="#181818" points="325.9147,248.4282,318.1321,242.3924,321.0597,247.2327,316.2193,250.1603,325.9147,248.4282" style="stroke:#181818;stroke-width:1;stroke-linejoin:miter;stroke-miterlimit:10;"/><text fill="#000000" font-family="sans-serif" font-size="13" lengthAdjust="spacing" textLength="78.5015" x="199.61" y="213.3269">Red privada</text></g><!--link Cloud to Soporte--><g class="link" data-entity-1="ent0001" data-entity-2="ent0008" data-link-type="dependency" data-source-line="21" id="lnk12"><path d="M105.8864,201.2732 C105.9758,201.4166 106.0664,201.5619 106.1581,201.7088 C106.3415,202.0026 106.5293,202.3033 106.7217,202.6107 C107.1063,203.2256 107.5088,203.8674 107.9289,204.5356 C108.7691,205.8719 109.6795,207.3133 110.658,208.854 C112.615,211.9354 114.8443,215.4137 117.3284,219.242 C127.265,234.5553 141.2788,255.4681 158.25,278.9713 C192.1925,325.9775 237.965,383.345 286.61,427 C298.045,437.2625 311.0463,447.0163 324.1503,455.8902 C330.7023,460.3271 337.2801,464.5441 343.7006,468.4947 C346.9108,470.4701 350.0818,472.3788 353.1906,474.2152 C353.5792,474.4447 349.6564,472.1392 350.043,472.3665" fill="none" id="Cloud-to-Soporte" style="stroke:#181818;stroke-width:1;"/><polygon fill="#181818" points="354.3534,474.9004,348.6218,466.8911,350.043,472.3665,344.5676,473.7877,354.3534,474.9004" style="stroke:#181818;stroke-width:1;stroke-linejoin:miter;stroke-miterlimit:10;"/><text fill="#000000" font-family="sans-serif" font-size="13" lengthAdjust="spacing" textLength="73.6836" x="202.11" y="333.4069">Integraci&#243;n</text></g><?plantuml-src PP11JWCn34NtSmfhzhr05qYq2zG5234dS1Cp3StO8yTjLH17OiKHUZ4IKYWTDj5N_jT_NuxqR6026lgDWGzApe9maxQ1HrGSmCam2XDRPyT8K0B8VQIc-PNGFeWNS3ca684OUBUc5Z31CihEmri3bnveRnzNS8T61posrqv7kWykI0AdfmyBJb99U3HSOygWHNazbPyIgiIsUV-_PXI5HBxEwBAOhlXXGHHNEgxC9ReDJNilwt9RaaomSttLKyAzS33Hy8ekd3vvWbYeR4bBrK2Sy8NIDwzUR3QxgQFdy4GUHWrxzFZNF2Fdi6AZNYlY2m00?></g></svg>