<svg xmlns="http://www.w3.org/2000/svg" xmlns:xlink="http://www.w3.org/1999/xlink" contentStyleType="text/css" data-diagram-type="DESCRIPTION" height="382px" preserveAspectRatio="none" style="width:915px;height:382px;background:#FFFFFF;" version="1.1" viewBox="0 0 915 382" width="915px" zoomAndPan="magnify"><?plantuml 1.2026.6?><defs/><g><!--cluster Sistema--><g class="cluster" data-qualified-name="Sistema" data-source-line="16" id="ent0006"><rect fill="none" height="239" rx="2.5" ry="2.5" style="stroke:#181818;stroke-width:1;" width="684.7" x="216.56" y="30.65"/><text fill="#000000" font-family="sans-serif" font-size="14" font-weight="700" lengthAdjust="spacing" textLength="221.5596" x="448.1302" y="45.6451">Sistema Hospitalario Digital</text></g><!--entity PortalPaciente--><g class="entity" data-qualified-name="Sistema.PortalPaciente" data-source-line="17" id="ent0007"><rect fill="#F1F1F1" height="36.2969" rx="2.5" ry="2.5" style="stroke:#181818;stroke-width:0.5;" width="125.3691" x="253.52" y="65.5"/><text fill="#000000" font-family="sans-serif" font-size="14" lengthAdjust="spacing" textLength="105.3691" x="263.52" y="88.4951">Portal Paciente</text></g><!--entity AppClinica--><g class="entity" data-qualified-name="Sistema.AppClinica" data-source-line="18" id="ent0008"><rect fill="#F1F1F1" height="36.2969" rx="2.5" ry="2.5" style="stroke:#181818;stroke-width:0.5;" width="142.5889" x="244.91" y="141.5"/><text fill="#000000" font-family="sans-serif" font-size="14" lengthAdjust="spacing" textLength="122.5889" x="254.91" y="164.4951">Aplicaci&#243;n Cl&#237;nica</text></g><!--entity PortalAdmin--><g class="entity" data-qualified-name="Sistema.PortalAdmin" data-source-line="19" id="ent0009"><rect fill="#F1F1F1" height="36.2969" rx="2.5" ry="2.5" style="stroke:#181818;stroke-width:0.5;" width="167.2734" x="232.56" y="217.5"/><text fill="#000000" font-family="sans-serif" font-size="14" lengthAdjust="spacing" textLength="147.2734" x="242.56" y="240.4951">Portal Administrativo</text></g><!--entity ApiGateway--><g class="entity" data-qualified-name="Sistema.ApiGateway" data-source-line="20" id="ent0010"><rect fill="#F1F1F1" height="36.2969" rx="2.5" ry="2.5" style="stroke:#181818;stroke-width:0.5;" width="108.4434" x="501.71" y="213.5"/><text fill="#000000" font-family="sans-serif" font-size="14" lengthAdjust="spacing" textLength="88.4434" x="511.71" y="236.4951">API Gateway</text></g><!--entity ServicioSeguridad--><g class="entity" data-qualified-name="Sistema.ServicioSeguridad" data-source-line="21" id="ent0011"><rect fill="#F1F1F1" height="36.2969" rx="2.5" ry="2.5" style="stroke:#181818;stroke-width:0.5;" width="173.2412" x="712.02" y="215.5"/><text fill="#000000" font-family="sans-serif" font-size="14" lengthAdjust="spacing" textLength="153.2412" x="722.02" y="238.4951">Servicio de Seguridad</text></g><!--entity Paciente--><g class="entity" data-qualified-name="Paciente" data-source-line="10" id="ent0001"><ellipse cx="89.2786" cy="14" fill="#F1F1F1" rx="8" ry="8" style="stroke:#181818;stroke-width:0.5;"/><path d="M89.2786,22 L89.2786,49 M76.2786,30 L102.2786,30 M89.2786,49 L76.2786,64 M89.2786,49 L102.2786,64" fill="none" style="stroke:#181818;stroke-width:0.5;"/><text fill="#000000" font-family="sans-serif" font-size="14" lengthAdjust="spacing" textLength="60.1973" x="59.18" y="78.4951">Paciente</text></g><!--entity Medico--><g class="entity" data-qualified-name="Medico" data-source-line="11" id="ent0002"><ellipse cx="89.2857" cy="130" fill="#F1F1F1" rx="8" ry="8" style="stroke:#181818;stroke-width:0.5;"/><path d="M89.2857,138 L89.2857,165 M76.2857,146 L102.2857,146 M89.2857,165 L76.2857,180 M89.2857,165 L102.2857,180" fill="none" style="stroke:#181818;stroke-width:0.5;"/><text fill="#000000" font-family="sans-serif" font-size="14" lengthAdjust="spacing" textLength="49.7314" x="64.42" y="194.4951">M&#233;dico</text></g><!--entity Admin--><g class="entity" data-qualified-name="Admin" data-source-line="12" id="ent0003"><ellipse cx="89.2822" cy="246" fill="#F1F1F1" rx="8" ry="8" style="stroke:#181818;stroke-width:0.5;"/><path d="M89.2822,254 L89.2822,281 M76.2822,262 L102.2822,262 M89.2822,281 L76.2822,296 M89.2822,281 L102.2822,296" fill="none" style="stroke:#181818;stroke-width:0.5;"/><text fill="#000000" font-family="sans-serif" font-size="14" lengthAdjust="spacing" textLength="166.5645" x="6" y="310.4951">Personal Administrativo</text></g><!--entity Lab--><g class="entity" data-qualified-name="Lab" data-source-line="13" id="ent0004"><ellipse cx="316.2048" cy="302" fill="#F1F1F1" rx="8" ry="8" style="stroke:#181818;stroke-width:0.5;"/><path d="M316.2048,310 L316.2048,337 M303.2048,318 L329.2048,318 M316.2048,337 L303.2048,352 M316.2048,337 L329.2048,352" fill="none" style="stroke:#181818;stroke-width:0.5;"/><text fill="#000000" font-family="sans-serif" font-size="14" lengthAdjust="spacing" textLength="139.3096" x="246.55" y="366.4951">Laboratorio Externo</text></g><!--entity TI--><g class="entity" data-qualified-name="TI" data-source-line="14" id="ent0005"><ellipse cx="555.9328" cy="298" fill="#F1F1F1" rx="8" ry="8" style="stroke:#181818;stroke-width:0.5;"/><path d="M555.9328,306 L555.9328,333 M542.9328,314 L568.9328,314 M555.9328,333 L542.9328,348 M555.9328,333 L568.9328,348" fill="none" style="stroke:#181818;stroke-width:0.5;"/><text fill="#000000" font-family="sans-serif" font-size="14" lengthAdjust="spacing" textLength="192.1855" x="459.84" y="362.4951">Administrador TI/Seguridad</text></g><!--link Paciente to PortalPaciente--><g class="link" data-entity-1="ent0001" data-entity-2="ent0007" data-link-type="dependency" data-source-line="24" id="lnk12"><path d="M119.69,48.88 C153.38,54.87 204.6372,63.9845 248.1572,71.7245" fill="none" id="Paciente-to-PortalPaciente" style="stroke:#4A4A4A;stroke-width:1;"/><polygon fill="#4A4A4A" points="253.08,72.6,244.9195,67.0859,248.1572,71.7245,243.5186,74.9623,253.08,72.6" style="stroke:#4A4A4A;stroke-width:1;stroke-linejoin:miter;stroke-miterlimit:10;"/></g><!--link Medico to AppClinica--><g class="link" data-entity-1="ent0002" data-entity-2="ent0008" data-link-type="dependency" data-source-line="25" id="lnk13"><path d="M114.35,159.65 C145.18,159.65 194.94,159.65 239.5,159.65" fill="none" id="Medico-to-AppClinica" style="stroke:#4A4A4A;stroke-width:1;"/><polygon fill="#4A4A4A" points="244.5,159.65,235.5,155.65,239.5,159.65,235.5,163.65,244.5,159.65" style="stroke:#4A4A4A;stroke-width:1;stroke-linejoin:miter;stroke-miterlimit:10;"/></g><!--link Admin to PortalAdmin--><g class="link" data-entity-1="ent0003" data-entity-2="ent0009" data-link-type="dependency" data-source-line="26" id="lnk14"><path d="M172.76,260.98 C192.19,257.53 207.9873,254.7157 227.4373,251.2557" fill="none" id="Admin-to-PortalAdmin" style="stroke:#4A4A4A;stroke-width:1;"/><polygon fill="#4A4A4A" points="232.36,250.38,222.7985,248.0181,227.4373,251.2557,224.1997,255.8945,232.36,250.38" style="stroke:#4A4A4A;stroke-width:1;stroke-linejoin:miter;stroke-miterlimit:10;"/></g><!--link Lab to ApiGateway--><g class="link" data-entity-1="ent0004" data-entity-2="ent0010" data-link-type="dependency" data-source-line="27" id="lnk15"><path d="M386.31,301.12 C409.6,290.96 435.79,279.68 459.84,269.65 C475.43,263.15 487.8951,258.0907 503.2551,251.9707" fill="none" id="Lab-to-ApiGateway" style="stroke:#4A4A4A;stroke-width:1;"/><polygon fill="#4A4A4A" points="507.9,250.12,498.0587,249.7353,503.2551,251.9707,501.0198,257.1672,507.9,250.12" style="stroke:#4A4A4A;stroke-width:1;stroke-linejoin:miter;stroke-miterlimit:10;"/></g><!--link TI to ServicioSeguridad--><g class="link" data-entity-1="ent0005" data-entity-2="ent0011" data-link-type="dependency" data-source-line="28" id="lnk16"><path d="M652.41,290.37 C685.88,277.29 717.3831,265.0003 745.2431,254.1103" fill="none" id="TI-to-ServicioSeguridad" style="stroke:#4A4A4A;stroke-width:1;"/><polygon fill="#4A4A4A" points="749.9,252.29,740.0614,251.841,745.2431,254.1103,742.9739,259.292,749.9,252.29" style="stroke:#4A4A4A;stroke-width:1;stroke-linejoin:miter;stroke-miterlimit:10;"/></g><!--link PortalPaciente to ApiGateway--><g class="link" data-entity-1="ent0007" data-entity-2="ent0010" data-link-type="dependency" data-source-line="29" id="lnk17"><path d="M361.71,102.29 C374.28,108.04 387.81,114.7 399.84,121.65 C449,150.06 498.1716,186.8696 527.7316,209.9896" fill="none" id="PortalPaciente-to-ApiGateway" style="stroke:#4A4A4A;stroke-width:1;"/><polygon fill="#4A4A4A" points="531.67,213.07,527.0451,204.3746,527.7316,209.9896,522.1165,210.676,531.67,213.07" style="stroke:#4A4A4A;stroke-width:1;stroke-linejoin:miter;stroke-miterlimit:10;"/></g><!--link AppClinica to ApiGateway--><g class="link" data-entity-1="ent0008" data-entity-2="ent0010" data-link-type="dependency" data-source-line="30" id="lnk18"><path d="M378.73,178.29 C416.7,189.79 460.1545,202.9512 496.5545,213.9712" fill="none" id="AppClinica-to-ApiGateway" style="stroke:#4A4A4A;stroke-width:1;"/><polygon fill="#4A4A4A" points="501.34,215.42,493.8851,208.9838,496.5545,213.9712,491.5671,216.6406,501.34,215.42" style="stroke:#4A4A4A;stroke-width:1;stroke-linejoin:miter;stroke-miterlimit:10;"/></g><!--link PortalAdmin to ApiGateway--><g class="link" data-entity-1="ent0009" data-entity-2="ent0010" data-link-type="dependency" data-source-line="31" id="lnk19"><path d="M400.01,234.26 C433.65,233.69 466.5407,233.1337 496.4207,232.6337" fill="none" id="PortalAdmin-to-ApiGateway" style="stroke:#4A4A4A;stroke-width:1;"/><polygon fill="#4A4A4A" points="501.42,232.55,492.3543,228.7011,496.4207,232.6337,492.4882,236.7,501.42,232.55" style="stroke:#4A4A4A;stroke-width:1;stroke-linejoin:miter;stroke-miterlimit:10;"/></g><!--link ApiGateway to ServicioSeguridad--><g class="link" data-entity-1="ent0010" data-entity-2="ent0011" data-link-type="dependency" data-source-line="32" id="lnk20"><path d="M610.65,232.1 C640.44,232.35 673.1902,232.6185 706.9502,232.8985" fill="none" id="ApiGateway-to-ServicioSeguridad" style="stroke:#4A4A4A;stroke-width:1;"/><polygon fill="#4A4A4A" points="711.95,232.94,702.9835,228.8655,706.9502,232.8985,702.9171,236.8652,711.95,232.94" style="stroke:#4A4A4A;stroke-width:1;stroke-linejoin:miter;stroke-miterlimit:10;"/></g><?plantuml-src RP5BJiD038RtSmghh14F8PP8LNbL0WcflO39kAd5P1nD1af178W5AuxGY-4aJJefLQHexFyRsx_7qI9250YSBoDO3fH55c-g5_Ob1YmWaw8KJpxEujeHr03wt562L4kqicAVmm9TbIgM5lZgufpUuzXnxWkj0vd-A2JKE0HPJSH9WACBhBz4H1teZUFwch4GRsz59-4FWhFp10heNoeguV8qINgnL2SlJetHAbfzz8GPrzr7W1LqGIS-RhujPz9eZrGV-siKAl7eO6mBzbp5W3fKIpQf3dp0Pr5D0WlSlAjBtqAQxv1T2QlXV7eoe_mri4NRaFEfCVsEOJHJaWg4UwbAZkYmhdpDUNrk-0xuDB1xAfrOWX8mzDlaUjS3VbmwpbJP_7gOkCsFrwYrLvOJntLuiC61XRHAkvPXZwSft66a5QwtfNaR3haPXJVErASb62wdK_gi-JAcCmJ7nrVx7jjdR9J4I3DRWhUpwXjjmNwi-RJ9_6yxRBD_RTTgNqdw_R_K7G_t_0C0?></g></svg>