<svg xmlns="http://www.w3.org/2000/svg" xmlns:xlink="http://www.w3.org/1999/xlink" contentStyleType="text/css" data-diagram-type="DESCRIPTION" height="525px" preserveAspectRatio="none" style="width:652px;height:525px;background:#FFFFFF;" version="1.1" viewBox="0 0 652 525" width="652px" zoomAndPan="magnify"><?plantuml 1.2026.6?><defs/><g><!--cluster Servicios de Negocio--><g class="cluster" data-qualified-name="Servicios de Negocio" data-source-line="4" id="ent0001"><path d="M8.5,6 L173.7881,6 A3.75,3.75 0 0 1 176.2881,8.5 L183.2881,28.2969 L378.89,28.2969 A2.5,2.5 0 0 1 381.39,30.7969 L381.39,445.5 A2.5,2.5 0 0 1 378.89,448 L8.5,448 A2.5,2.5 0 0 1 6,445.5 L6,8.5 A2.5,2.5 0 0 1 8.5,6" fill="none" style="stroke:#000000;stroke-width:1.5;"/><line style="stroke:#000000;stroke-width:1.5;" x1="6" x2="183.2881" y1="28.2969" y2="28.2969"/><text fill="#000000" font-family="sans-serif" font-size="14" font-weight="700" lengthAdjust="spacing" textLength="164.2881" x="10" y="20.9951">Servicios de Negocio</text></g><!--cluster Infraestructura de Soporte--><g class="cluster" data-qualified-name="Infraestructura de Soporte" data-source-line="14" id="ent0009"><path d="M411.89,148 L624.9066,148 A3.75,3.75 0 0 1 627.4066,150.5 L634.4066,170.2969 L634.89,170.2969 A2.5,2.5 0 0 1 637.39,172.7969 L637.39,374.5 A2.5,2.5 0 0 1 634.89,377 L411.89,377 A2.5,2.5 0 0 1 409.39,374.5 L409.39,150.5 A2.5,2.5 0 0 1 411.89,148" fill="none" style="stroke:#000000;stroke-width:1.5;"/><line style="stroke:#000000;stroke-width:1.5;" x1="409.39" x2="634.4066" y1="170.2969" y2="170.2969"/><text fill="#000000" font-family="sans-serif" font-size="14" font-weight="700" lengthAdjust="spacing" textLength="212.0166" x="413.39" y="162.9951">Infraestructura de Soporte</text></g><!--entity PacientesSvc--><g class="entity" data-qualified-name="Servicios de Negocio.PacientesSvc" data-source-line="5" id="ent0002"><rect fill="#F1F1F1" height="36.2969" rx="2.5" ry="2.5" style="stroke:#181818;stroke-width:0.5;" width="143.1357" x="205.27" y="40.85"/><text fill="#000000" font-family="sans-serif" font-size="14" lengthAdjust="spacing" textLength="123.1357" x="215.27" y="63.8451">pacientes-service</text></g><!--entity HistoriaSvc--><g class="entity" data-qualified-name="Servicios de Negocio.HistoriaSvc" data-source-line="6" id="ent0003"><rect fill="#F1F1F1" height="36.2969" rx="2.5" ry="2.5" style="stroke:#181818;stroke-width:0.5;" width="177.1035" x="188.29" y="395.85"/><text fill="#000000" font-family="sans-serif" font-size="14" lengthAdjust="spacing" textLength="157.1035" x="198.29" y="418.8451">historia-clinica-service</text></g><!--entity AgendaSvc--><g class="entity" data-qualified-name="Servicios de Negocio.AgendaSvc" data-source-line="7" id="ent0004"><rect fill="#F1F1F1" height="36.2969" rx="2.5" ry="2.5" style="stroke:#181818;stroke-width:0.5;" width="176.6865" x="188.5" y="324.85"/><text fill="#000000" font-family="sans-serif" font-size="14" lengthAdjust="spacing" textLength="156.6865" x="198.5" y="347.8451">agendamiento-service</text></g><!--entity TelemedSvc--><g class="entity" data-qualified-name="Servicios de Negocio.TelemedSvc" data-source-line="8" id="ent0005"><rect fill="#F1F1F1" height="36.2969" rx="2.5" ry="2.5" style="stroke:#181818;stroke-width:0.5;" width="165.8721" x="193.91" y="253.85"/><text fill="#000000" font-family="sans-serif" font-size="14" lengthAdjust="spacing" textLength="145.8721" x="203.91" y="276.8451">telemedicina-service</text></g><!--entity SeguridadSvc--><g class="entity" data-qualified-name="Servicios de Negocio.SeguridadSvc" data-source-line="9" id="ent0006"><rect fill="#F1F1F1" height="36.2969" rx="2.5" ry="2.5" style="stroke:#181818;stroke-width:0.5;" width="144.8652" x="204.41" y="182.85"/><text fill="#000000" font-family="sans-serif" font-size="14" lengthAdjust="spacing" textLength="124.8652" x="214.41" y="205.8451">seguridad-service</text></g><!--entity LabAdapterSvc--><g class="entity" data-qualified-name="Servicios de Negocio.LabAdapterSvc" data-source-line="10" id="ent0007"><rect fill="#F1F1F1" height="36.2969" rx="2.5" ry="2.5" style="stroke:#181818;stroke-width:0.5;" width="156.3633" x="198.66" y="111.85"/><text fill="#000000" font-family="sans-serif" font-size="14" lengthAdjust="spacing" textLength="136.3633" x="208.66" y="134.8451">laboratorio-adapter</text></g><!--entity GatewaySvc--><g class="entity" data-qualified-name="Servicios de Negocio.GatewaySvc" data-source-line="11" id="ent0008"><rect fill="#F1F1F1" height="36.2969" rx="2.5" ry="2.5" style="stroke:#181818;stroke-width:0.5;" width="106.29" x="22" y="253.85"/><text fill="#000000" font-family="sans-serif" font-size="14" lengthAdjust="spacing" textLength="86.29" x="32" y="276.8451">api-gateway</text></g><!--entity Registry--><g class="entity" data-qualified-name="Infraestructura de Soporte.Registry" data-source-line="15" id="ent0010"><rect fill="#F1F1F1" height="36.2969" rx="2.5" ry="2.5" style="stroke:#181818;stroke-width:0.5;" width="134.1328" x="455.83" y="182.85"/><text fill="#000000" font-family="sans-serif" font-size="14" lengthAdjust="spacing" textLength="114.1328" x="465.83" y="205.8451">Service Registry</text></g><!--entity Broker--><g class="entity" data-qualified-name="Infraestructura de Soporte.Broker" data-source-line="16" id="ent0011"><rect fill="#F1F1F1" height="36.2969" rx="2.5" ry="2.5" style="stroke:#181818;stroke-width:0.5;" width="132.2119" x="456.79" y="324.85"/><text fill="#000000" font-family="sans-serif" font-size="14" lengthAdjust="spacing" textLength="112.2119" x="466.79" y="347.8451">Message Broker</text></g><!--entity Monitor--><g class="entity" data-qualified-name="Infraestructura de Soporte.Monitor" data-source-line="17" id="ent0012"><rect fill="#F1F1F1" height="36.2969" rx="2.5" ry="2.5" style="stroke:#181818;stroke-width:0.5;" width="94.8672" x="475.46" y="253.85"/><text fill="#000000" font-family="sans-serif" font-size="14" lengthAdjust="spacing" textLength="74.8672" x="485.46" y="276.8451">Monitoring</text></g><!--link GatewaySvc to PacientesSvc--><g class="link" data-entity-1="ent0008" data-entity-2="ent0002" data-link-type="dependency" data-source-line="20" id="lnk13"><path d="M83.22,253.44 C97.7,217.78 133.98,139.23 188.29,94 C196.09,87.5 200.7336,84.2452 210.1236,79.7852" fill="none" id="GatewaySvc-to-PacientesSvc" style="stroke:#181818;stroke-width:1;"/><polygon fill="#181818" points="214.64,77.64,204.7943,77.8882,210.1236,79.7852,208.2266,85.1145,214.64,77.64" style="stroke:#181818;stroke-width:1;stroke-linejoin:miter;stroke-miterlimit:10;"/></g><!--link GatewaySvc to HistoriaSvc--><g class="link" data-entity-1="ent0008" data-entity-2="ent0003" data-link-type="dependency" data-source-line="21" id="lnk14"><path d="M91.52,290.51 C111.68,313.81 149.12,353.83 188.29,379 C198.07,385.28 204.5597,388.8111 215.4797,393.4611" fill="none" id="GatewaySvc-to-HistoriaSvc" style="stroke:#181818;stroke-width:1;"/><polygon fill="#181818" points="220.08,395.42,213.3666,388.2137,215.4797,393.4611,210.2323,395.5742,220.08,395.42" style="stroke:#181818;stroke-width:1;stroke-linejoin:miter;stroke-miterlimit:10;"/></g><!--link GatewaySvc to AgendaSvc--><g class="link" data-entity-1="ent0008" data-entity-2="ent0004" data-link-type="dependency" data-source-line="22" id="lnk15"><path d="M128.35,290.56 C157.71,300.99 189.519,312.3048 218.879,322.7448" fill="none" id="GatewaySvc-to-AgendaSvc" style="stroke:#181818;stroke-width:1;"/><polygon fill="#181818" points="223.59,324.42,216.4503,317.6359,218.879,322.7448,213.77,325.1735,223.59,324.42" style="stroke:#181818;stroke-width:1;stroke-linejoin:miter;stroke-miterlimit:10;"/></g><!--link GatewaySvc to TelemedSvc--><g class="link" data-entity-1="ent0008" data-entity-2="ent0005" data-link-type="dependency" data-source-line="23" id="lnk16"><path d="M128.61,272 C148.49,272 166.63,272 188.59,272" fill="none" id="GatewaySvc-to-TelemedSvc" style="stroke:#181818;stroke-width:1;"/><polygon fill="#181818" points="193.59,272,184.59,268,188.59,272,184.59,276,193.59,272" style="stroke:#181818;stroke-width:1;stroke-linejoin:miter;stroke-miterlimit:10;"/></g><!--link GatewaySvc to SeguridadSvc--><g class="link" data-entity-1="ent0008" data-entity-2="ent0006" data-link-type="dependency" data-source-line="24" id="lnk17"><path d="M128.35,253.43 C157.71,243 189.519,231.6852 218.879,221.2452" fill="none" id="GatewaySvc-to-SeguridadSvc" style="stroke:#181818;stroke-width:1;"/><polygon fill="#181818" points="223.59,219.57,213.77,218.8165,218.879,221.2452,216.4503,226.3541,223.59,219.57" style="stroke:#181818;stroke-width:1;stroke-linejoin:miter;stroke-miterlimit:10;"/></g><!--link GatewaySvc to LabAdapterSvc--><g class="link" data-entity-1="ent0008" data-entity-2="ent0007" data-link-type="dependency" data-source-line="25" id="lnk18"><path d="M91.52,253.48 C111.68,230.18 149.12,190.16 188.29,165 C198.07,158.71 204.5597,155.1789 215.4797,150.5289" fill="none" id="GatewaySvc-to-LabAdapterSvc" style="stroke:#181818;stroke-width:1;"/><polygon fill="#181818" points="220.08,148.57,210.2323,148.4158,215.4797,150.5289,213.3666,155.7763,220.08,148.57" style="stroke:#181818;stroke-width:1;stroke-linejoin:miter;stroke-miterlimit:10;"/></g><!--link HistoriaSvc to Broker--><g class="link" data-entity-1="ent0003" data-entity-2="ent0011" data-link-type="dependency" data-source-line="27" id="lnk19"><path d="M341.64,395.43 C377.52,385 417.3591,373.4069 453.2391,362.9669" fill="none" id="HistoriaSvc-to-Broker" style="stroke:#181818;stroke-width:1;"/><polygon fill="#181818" points="458.04,361.57,448.2808,360.2437,453.2391,362.9669,450.5159,367.9252,458.04,361.57" style="stroke:#181818;stroke-width:1;stroke-linejoin:miter;stroke-miterlimit:10;"/></g><!--link AgendaSvc to Broker--><g class="link" data-entity-1="ent0004" data-entity-2="ent0011" data-link-type="dependency" data-source-line="28" id="lnk20"><path d="M365.61,343 C395.53,343 423.45,343 451.33,343" fill="none" id="AgendaSvc-to-Broker" style="stroke:#181818;stroke-width:1;"/><polygon fill="#181818" points="456.33,343,447.33,339,451.33,343,447.33,347,456.33,343" style="stroke:#181818;stroke-width:1;stroke-linejoin:miter;stroke-miterlimit:10;"/></g><!--link TelemedSvc to Broker--><g class="link" data-entity-1="ent0005" data-entity-2="ent0011" data-link-type="dependency" data-source-line="29" id="lnk21"><path d="M341.65,290.6 C360.85,296.19 381.98,302.35 401.39,308 C419.7,313.32 434.769,317.6934 452.989,322.9934" fill="none" id="TelemedSvc-to-Broker" style="stroke:#181818;stroke-width:1;"/><polygon fill="#181818" points="457.79,324.39,450.2654,318.0354,452.989,322.9934,448.0309,325.717,457.79,324.39" style="stroke:#181818;stroke-width:1;stroke-linejoin:miter;stroke-miterlimit:10;"/></g><!--link SeguridadSvc to Broker--><g class="link" data-entity-1="ent0006" data-entity-2="ent0011" data-link-type="dependency" data-source-line="30" id="lnk22"><path d="M349.57,210.9 C364.59,216.14 379,224.05 389.39,236 C410.69,260.47 379.84,283.75 401.39,308 C415.43,323.79 431.2696,331.4668 451.5696,336.3668" fill="none" id="SeguridadSvc-to-Broker" style="stroke:#181818;stroke-width:1;"/><polygon fill="#181818" points="456.43,337.54,448.6198,331.5399,451.5696,336.3668,446.7427,339.3166,456.43,337.54" style="stroke:#181818;stroke-width:1;stroke-linejoin:miter;stroke-miterlimit:10;"/></g><!--link PacientesSvc to Registry--><g class="link" data-entity-1="ent0002" data-entity-2="ent0010" data-link-type="dependency" data-source-line="32" id="lnk23"><path d="M348.8,76.85 C362.65,81.55 376.78,87.24 389.39,94 C434.75,118.28 476.0847,155.4947 500.2047,179.0747" fill="none" id="PacientesSvc-to-Registry" style="stroke:#181818;stroke-width:1;"/><polygon fill="#181818" points="503.78,182.57,500.1406,173.4182,500.2047,179.0747,494.5482,179.1388,503.78,182.57" style="stroke:#181818;stroke-width:1;stroke-linejoin:miter;stroke-miterlimit:10;"/></g><!--link HistoriaSvc to Registry--><g class="link" data-entity-1="ent0003" data-entity-2="ent0010" data-link-type="dependency" data-source-line="33" id="lnk24"><path d="M365.7,398.01 C374.77,393.2 382.99,387 389.39,379 C409.33,354.1 381.2,260.67 401.39,236 C414.71,219.73 430.2486,211.9191 450.4986,207.0491" fill="none" id="HistoriaSvc-to-Registry" style="stroke:#181818;stroke-width:1;"/><polygon fill="#181818" points="455.36,205.88,445.6742,204.0953,450.4986,207.0491,447.5448,211.8736,455.36,205.88" style="stroke:#181818;stroke-width:1;stroke-linejoin:miter;stroke-miterlimit:10;"/></g><!--link AgendaSvc to Registry--><g class="link" data-entity-1="ent0004" data-entity-2="ent0010" data-link-type="dependency" data-source-line="34" id="lnk25"><path d="M365.62,326.21 C374.58,321.53 382.8,315.58 389.39,308 C410.69,283.52 379.84,260.24 401.39,236 C415.22,220.45 430.6364,212.8313 450.6364,207.8813" fill="none" id="AgendaSvc-to-Registry" style="stroke:#181818;stroke-width:1;"/><polygon fill="#181818" points="455.49,206.68,445.7926,204.9594,450.6364,207.8813,447.7146,212.7251,455.49,206.68" style="stroke:#181818;stroke-width:1;stroke-linejoin:miter;stroke-miterlimit:10;"/></g><!--link TelemedSvc to Registry--><g class="link" data-entity-1="ent0005" data-entity-2="ent0010" data-link-type="dependency" data-source-line="35" id="lnk26"><path d="M341.65,253.39 C360.85,247.8 381.98,241.64 401.39,236 C419.7,230.67 434.769,226.2966 452.989,220.9966" fill="none" id="TelemedSvc-to-Registry" style="stroke:#181818;stroke-width:1;"/><polygon fill="#181818" points="457.79,219.6,448.0309,218.273,452.989,220.9966,450.2654,225.9546,457.79,219.6" style="stroke:#181818;stroke-width:1;stroke-linejoin:miter;stroke-miterlimit:10;"/></g><!--link SeguridadSvc to Registry--><g class="link" data-entity-1="ent0006" data-entity-2="ent0010" data-link-type="dependency" data-source-line="36" id="lnk27"><path d="M349.75,201 C383.21,201 417.76,201 450.51,201" fill="none" id="SeguridadSvc-to-Registry" style="stroke:#181818;stroke-width:1;"/><polygon fill="#181818" points="455.51,201,446.51,197,450.51,201,446.51,205,455.51,201" style="stroke:#181818;stroke-width:1;stroke-linejoin:miter;stroke-miterlimit:10;"/></g><!--link LabAdapterSvc to Registry--><g class="link" data-entity-1="ent0007" data-entity-2="ent0010" data-link-type="dependency" data-source-line="37" id="lnk28"><path d="M341.64,148.56 C377.52,158.99 417.3591,170.5831 453.2391,181.0231" fill="none" id="LabAdapterSvc-to-Registry" style="stroke:#181818;stroke-width:1;"/><polygon fill="#181818" points="458.04,182.42,450.5159,176.0648,453.2391,181.0231,448.2808,183.7463,458.04,182.42" style="stroke:#181818;stroke-width:1;stroke-linejoin:miter;stroke-miterlimit:10;"/></g><!--link Monitor to GatewaySvc--><g class="link" data-entity-1="ent0012" data-entity-2="ent0008" data-link-type="dependency" data-source-line="39" id="lnk29"><path d="M475.19,273.27 C449.42,276.6 419.12,285.33 401.39,307 C381.2,331.67 412.87,428.41 389.39,450 C323.6,510.5 266.54,493.18 188.29,450 C125.29,415.23 94.2975,333.3429 82.6875,295.2429" fill="none" id="Monitor-to-GatewaySvc" style="stroke:#181818;stroke-width:1;"/><polygon fill="#181818" points="81.23,290.46,80.0271,300.2351,82.6875,295.2429,87.6797,297.9032,81.23,290.46" style="stroke:#181818;stroke-width:1;stroke-linejoin:miter;stroke-miterlimit:10;"/></g><!--link Monitor to PacientesSvc--><g class="link" data-entity-1="ent0012" data-entity-2="ent0002" data-link-type="dependency" data-source-line="40" id="lnk30"><path d="M475.19,270.72 C449.42,267.39 419.12,258.66 401.39,237 C381.2,212.32 409.33,118.89 389.39,94 C379.18,81.24 369.0973,74.6494 353.5773,69.4094" fill="none" id="Monitor-to-PacientesSvc" style="stroke:#181818;stroke-width:1;"/><polygon fill="#181818" points="348.84,67.81,356.0875,74.4788,353.5773,69.4094,358.6467,66.8992,348.84,67.81" style="stroke:#181818;stroke-width:1;stroke-linejoin:miter;stroke-miterlimit:10;"/></g><!--link Monitor to HistoriaSvc--><g class="link" data-entity-1="ent0012" data-entity-2="ent0003" data-link-type="dependency" data-source-line="41" id="lnk31"><path d="M475.24,273.91 C449.81,277.47 419.85,286.24 401.39,307 C379.84,331.24 410.69,354.52 389.39,379 C382.87,386.5 379.1752,390.0825 370.3152,394.7425" fill="none" id="Monitor-to-HistoriaSvc" style="stroke:#181818;stroke-width:1;"/><polygon fill="#181818" points="365.89,397.07,375.7174,396.4207,370.3152,394.7425,371.9934,389.3403,365.89,397.07" style="stroke:#181818;stroke-width:1;stroke-linejoin:miter;stroke-miterlimit:10;"/></g><!--link Monitor to AgendaSvc--><g class="link" data-entity-1="ent0012" data-entity-2="ent0004" data-link-type="dependency" data-source-line="42" id="lnk32"><path d="M474.97,285.62 C452.67,292.09 425.66,299.94 401.39,307 C381.98,312.64 365.6507,317.4023 346.4507,322.9923" fill="none" id="Monitor-to-AgendaSvc" style="stroke:#181818;stroke-width:1;"/><polygon fill="#181818" points="341.65,324.39,351.4094,325.7147,346.4507,322.9923,349.1731,318.0336,341.65,324.39" style="stroke:#181818;stroke-width:1;stroke-linejoin:miter;stroke-miterlimit:10;"/></g><!--link Monitor to TelemedSvc--><g class="link" data-entity-1="ent0012" data-entity-2="ent0005" data-link-type="dependency" data-source-line="43" id="lnk33"><path d="M475.17,272 C442.66,272 403.46,272 365.13,272" fill="none" id="Monitor-to-TelemedSvc" style="stroke:#181818;stroke-width:1;"/><polygon fill="#181818" points="360.13,272,369.13,276,365.13,272,369.13,268,360.13,272" style="stroke:#181818;stroke-width:1;stroke-linejoin:miter;stroke-miterlimit:10;"/></g><!--link Monitor to SeguridadSvc--><g class="link" data-entity-1="ent0012" data-entity-2="ent0006" data-link-type="dependency" data-source-line="44" id="lnk34"><path d="M474.97,258.38 C452.67,251.9 425.66,244.05 401.39,237 C381.98,231.35 365.6507,226.5877 346.4507,220.9977" fill="none" id="Monitor-to-SeguridadSvc" style="stroke:#181818;stroke-width:1;"/><polygon fill="#181818" points="341.65,219.6,349.1731,225.9564,346.4507,220.9977,351.4094,218.2753,341.65,219.6" style="stroke:#181818;stroke-width:1;stroke-linejoin:miter;stroke-miterlimit:10;"/></g><!--link Monitor to LabAdapterSvc--><g class="link" data-entity-1="ent0012" data-entity-2="ent0007" data-link-type="dependency" data-source-line="45" id="lnk35"><path d="M475.24,270.09 C449.81,266.52 419.85,257.76 401.39,237 C379.84,212.75 410.69,189.47 389.39,165 C380.33,154.58 372.8604,149.0919 359.9504,143.9119" fill="none" id="Monitor-to-LabAdapterSvc" style="stroke:#181818;stroke-width:1;"/><polygon fill="#181818" points="355.31,142.05,362.1732,149.1138,359.9504,143.9119,365.1522,141.6891,355.31,142.05" style="stroke:#181818;stroke-width:1;stroke-linejoin:miter;stroke-miterlimit:10;"/></g><?plantuml-src PL91JiGm3Bpt5LRl_G8IN0094A9ym9jwiz6sIPLa5wqGVwT9kwsTtfAPSSRsfATZXEZ06tsAq1bFAXfdgt0sTaIF0oWtZCwIZMsyzGH9W5RtL5KZgZDgWhebVpNAk00TmGTfDvrh-ArWAuPwKflfGA49MKurO83FEzfUbTIVJ8ZE6snKRwnHACfU5d9NDVLZEnpIcqvKF6PYfu_Kqq3TrBsL3jypiIi8f2_UTDW9TNj7T_eU3yvZQjOrsE4OoUUADpmypjVz3ADfD4RwmLkMFi_dfFjZMt-rHuyKeh-eUF6OTj-wqVb8kztF0H5yaPuMv-TdxnSfVQSGqlDFtfsNLkTZ8NFMfA6ipfBbclhRkeMcUP015nnFiQ2sk0g2vL8m8eE2azkkc76cbmbNKmvkXXpbPXol-BoPMDTScgw4j5tXmdZ5TzOh8wQKLBKab57seJWiek84pudZMqWSPGbnMCJ32T7rFm00?></g></svg>